<svg width="485" height="301" viewBox="0 0 485 301" fill="none" xmlns="http://www.w3.org/2000/svg">
<path d="M175.837 249.576C175.757 249.712 175.673 249.812 175.585 249.876C175.497 249.94 175.385 249.972 175.249 249.972C175.105 249.972 174.941 249.908 174.757 249.78C174.573 249.644 174.341 249.496 174.061 249.336C173.789 249.168 173.461 249.02 173.077 248.892C172.693 248.756 172.233 248.688 171.697 248.688C171.193 248.688 170.749 248.756 170.365 248.892C169.989 249.02 169.673 249.2 169.417 249.432C169.161 249.656 168.965 249.924 168.829 250.236C168.701 250.54 168.637 250.872 168.637 251.232C168.637 251.696 168.753 252.08 168.985 252.384C169.225 252.688 169.537 252.948 169.921 253.164C170.305 253.38 170.741 253.568 171.229 253.728C171.717 253.888 172.217 254.056 172.729 254.232C173.241 254.4 173.741 254.596 174.229 254.82C174.717 255.044 175.153 255.328 175.537 255.672C175.921 256.008 176.229 256.424 176.461 256.92C176.701 257.408 176.821 258.008 176.821 258.72C176.821 259.48 176.689 260.192 176.425 260.856C176.169 261.52 175.793 262.1 175.297 262.596C174.801 263.092 174.189 263.484 173.461 263.772C172.741 264.052 171.921 264.192 171.001 264.192C170.449 264.192 169.913 264.136 169.393 264.024C168.873 263.92 168.381 263.772 167.917 263.58C167.453 263.38 167.017 263.144 166.609 262.872C166.209 262.592 165.849 262.28 165.529 261.936L166.261 260.712C166.333 260.616 166.417 260.536 166.513 260.472C166.617 260.408 166.733 260.376 166.861 260.376C167.029 260.376 167.221 260.464 167.437 260.64C167.661 260.816 167.933 261.012 168.253 261.228C168.581 261.436 168.969 261.628 169.417 261.804C169.873 261.98 170.425 262.068 171.073 262.068C171.601 262.068 172.073 262 172.489 261.864C172.905 261.72 173.253 261.52 173.533 261.264C173.821 261 174.041 260.684 174.193 260.316C174.345 259.948 174.421 259.54 174.421 259.092C174.421 258.588 174.305 258.176 174.073 257.856C173.841 257.536 173.533 257.268 173.149 257.052C172.765 256.836 172.329 256.652 171.841 256.5C171.353 256.348 170.853 256.192 170.341 256.032C169.829 255.864 169.329 255.672 168.841 255.456C168.353 255.24 167.917 254.96 167.533 254.616C167.149 254.264 166.841 253.828 166.609 253.308C166.377 252.78 166.261 252.132 166.261 251.364C166.261 250.748 166.381 250.152 166.621 249.576C166.861 249 167.209 248.492 167.665 248.052C168.129 247.604 168.697 247.248 169.369 246.984C170.041 246.712 170.809 246.576 171.673 246.576C172.641 246.576 173.529 246.732 174.337 247.044C175.153 247.348 175.861 247.788 176.461 248.364L175.837 249.576ZM191.724 248.904H186.252V264H183.708V248.904H178.212V246.768H191.724V248.904ZM201.671 257.58L199.115 250.896C198.931 250.44 198.747 249.864 198.563 249.168C198.475 249.512 198.383 249.832 198.287 250.128C198.199 250.424 198.111 250.688 198.023 250.92L195.479 257.58H201.671ZM206.723 264H204.755C204.531 264 204.347 263.944 204.203 263.832C204.059 263.72 203.955 263.576 203.891 263.4L202.367 259.404H194.771L193.247 263.4C193.191 263.552 193.087 263.692 192.935 263.82C192.783 263.94 192.599 264 192.383 264H190.415L197.279 246.768H199.859L206.723 264ZM222.986 246.768V264H221.69C221.49 264 221.322 263.964 221.186 263.892C221.058 263.82 220.926 263.704 220.79 263.544L211.058 250.956C211.074 251.172 211.086 251.384 211.094 251.592C211.11 251.8 211.118 251.996 211.118 252.18V264H208.874V246.768H210.194C210.418 246.768 210.586 246.796 210.698 246.852C210.81 246.9 210.934 247.016 211.07 247.2L220.826 259.8C220.802 259.568 220.782 259.344 220.766 259.128C220.758 258.904 220.754 258.696 220.754 258.504V246.768H222.986ZM242.285 255.384C242.285 256.672 242.077 257.844 241.661 258.9C241.253 259.956 240.673 260.864 239.921 261.624C239.169 262.376 238.269 262.96 237.221 263.376C236.173 263.792 235.009 264 233.729 264H227.249V246.768H233.729C235.009 246.768 236.173 246.976 237.221 247.392C238.269 247.808 239.169 248.396 239.921 249.156C240.673 249.908 241.253 250.816 241.661 251.88C242.077 252.936 242.285 254.104 242.285 255.384ZM239.669 255.384C239.669 254.36 239.529 253.444 239.249 252.636C238.969 251.82 238.569 251.132 238.049 250.572C237.537 250.004 236.913 249.572 236.177 249.276C235.449 248.98 234.633 248.832 233.729 248.832H229.817V261.936H233.729C234.633 261.936 235.449 261.788 236.177 261.492C236.913 261.196 237.537 260.768 238.049 260.208C238.569 259.64 238.969 258.952 239.249 258.144C239.529 257.336 239.669 256.416 239.669 255.384ZM267.633 255.384C267.633 256.672 267.425 257.856 267.009 258.936C266.601 260.008 266.021 260.936 265.269 261.72C264.517 262.496 263.617 263.1 262.569 263.532C261.521 263.964 260.357 264.18 259.077 264.18C257.805 264.18 256.641 263.964 255.585 263.532C254.537 263.1 253.637 262.496 252.885 261.72C252.141 260.936 251.561 260.008 251.145 258.936C250.729 257.856 250.521 256.672 250.521 255.384C250.521 254.104 250.729 252.924 251.145 251.844C251.561 250.764 252.141 249.836 252.885 249.06C253.637 248.276 254.537 247.668 255.585 247.236C256.641 246.796 257.805 246.576 259.077 246.576C260.357 246.576 261.521 246.796 262.569 247.236C263.617 247.668 264.517 248.276 265.269 249.06C266.021 249.836 266.601 250.764 267.009 251.844C267.425 252.924 267.633 254.104 267.633 255.384ZM265.017 255.384C265.017 254.36 264.877 253.44 264.597 252.624C264.317 251.808 263.917 251.116 263.397 250.548C262.885 249.98 262.261 249.544 261.525 249.24C260.797 248.936 259.981 248.784 259.077 248.784C258.173 248.784 257.353 248.936 256.617 249.24C255.889 249.544 255.265 249.98 254.745 250.548C254.225 251.116 253.825 251.808 253.545 252.624C253.265 253.44 253.125 254.36 253.125 255.384C253.125 256.416 253.265 257.34 253.545 258.156C253.825 258.964 254.225 259.652 254.745 260.22C255.265 260.788 255.889 261.224 256.617 261.528C257.353 261.824 258.173 261.972 259.077 261.972C259.981 261.972 260.797 261.824 261.525 261.528C262.261 261.224 262.885 260.788 263.397 260.22C263.917 259.652 264.317 258.964 264.597 258.156C264.877 257.34 265.017 256.416 265.017 255.384ZM277.563 261.948C278.251 261.948 278.867 261.832 279.411 261.6C279.955 261.368 280.415 261.044 280.791 260.628C281.167 260.204 281.455 259.704 281.655 259.128C281.855 258.544 281.955 257.9 281.955 257.196V246.768H284.499V257.196C284.499 258.204 284.339 259.136 284.019 259.992C283.699 260.848 283.239 261.588 282.639 262.212C282.039 262.836 281.311 263.324 280.455 263.676C279.599 264.028 278.635 264.204 277.563 264.204C276.491 264.204 275.527 264.028 274.671 263.676C273.815 263.324 273.087 262.836 272.487 262.212C271.887 261.588 271.427 260.848 271.107 259.992C270.787 259.136 270.627 258.204 270.627 257.196V246.768H273.183V257.184C273.183 257.888 273.279 258.532 273.471 259.116C273.671 259.7 273.959 260.204 274.335 260.628C274.711 261.044 275.171 261.368 275.715 261.6C276.259 261.832 276.875 261.948 277.563 261.948ZM300.286 248.904H294.814V264H292.27V248.904H286.774V246.768H300.286V248.904ZM330.327 246.768L324.951 264H322.647L318.447 251.22C318.351 250.964 318.267 250.656 318.195 250.296C318.107 250.664 318.023 250.972 317.943 251.22L313.695 264H311.403L306.027 246.768H308.163C308.387 246.768 308.575 246.824 308.727 246.936C308.879 247.04 308.979 247.184 309.027 247.368L312.423 258.9C312.487 259.124 312.543 259.368 312.591 259.632C312.647 259.896 312.703 260.172 312.759 260.46C312.815 260.172 312.871 259.896 312.927 259.632C312.991 259.368 313.063 259.124 313.143 258.9L317.031 247.368C317.079 247.208 317.179 247.068 317.331 246.948C317.491 246.828 317.679 246.768 317.895 246.768H318.627C318.851 246.768 319.035 246.824 319.179 246.936C319.323 247.048 319.427 247.192 319.491 247.368L323.367 258.9C323.511 259.34 323.639 259.84 323.751 260.4C323.847 259.848 323.951 259.348 324.063 258.9L327.471 247.368C327.511 247.208 327.611 247.068 327.771 246.948C327.931 246.828 328.119 246.768 328.335 246.768H330.327ZM335.333 264H332.765V246.768H335.333V264ZM351.333 248.904H345.861V264H343.317V248.904H337.821V246.768H351.333V248.904ZM367.924 246.768V264H365.368V256.236H356.38V264H353.812V246.768H356.38V254.376H365.368V246.768H367.924ZM389.278 248.904H383.806V264H381.262V248.904H375.766V246.768H389.278V248.904ZM394.325 264H391.757V246.768H394.325V264ZM416.697 246.768V264H414.465V251.736C414.465 251.552 414.469 251.356 414.477 251.148C414.493 250.94 414.509 250.728 414.525 250.512L408.789 261.036C408.589 261.428 408.281 261.624 407.865 261.624H407.505C407.089 261.624 406.785 261.428 406.593 261.036L400.749 250.476C400.797 250.924 400.821 251.344 400.821 251.736V264H398.577V246.768H400.473C400.697 246.768 400.869 246.792 400.989 246.84C401.117 246.88 401.237 247 401.349 247.2L407.109 257.52C407.221 257.728 407.325 257.948 407.421 258.18C407.517 258.412 407.609 258.644 407.697 258.876C407.865 258.404 408.061 257.948 408.285 257.508L413.937 247.2C414.041 247 414.153 246.88 414.273 246.84C414.401 246.792 414.577 246.768 414.801 246.768H416.697ZM431.652 261.924L431.64 264H420.96V246.768H431.64V248.844H423.528V254.304H430.056V256.308H423.528V261.924H431.652ZM444.676 261.852V264H434.812V246.768H437.368V261.852H444.676ZM457.855 261.924L457.843 264H447.163V246.768H457.843V248.844H449.731V254.304H456.259V256.308H449.731V261.924H457.855ZM469.931 249.576C469.851 249.712 469.767 249.812 469.679 249.876C469.591 249.94 469.479 249.972 469.343 249.972C469.199 249.972 469.035 249.908 468.851 249.78C468.667 249.644 468.435 249.496 468.155 249.336C467.883 249.168 467.555 249.02 467.171 248.892C466.787 248.756 466.327 248.688 465.791 248.688C465.287 248.688 464.843 248.756 464.459 248.892C464.083 249.02 463.767 249.2 463.511 249.432C463.255 249.656 463.059 249.924 462.923 250.236C462.795 250.54 462.731 250.872 462.731 251.232C462.731 251.696 462.847 252.08 463.079 252.384C463.319 252.688 463.631 252.948 464.015 253.164C464.399 253.38 464.835 253.568 465.323 253.728C465.811 253.888 466.311 254.056 466.823 254.232C467.335 254.4 467.835 254.596 468.323 254.82C468.811 255.044 469.247 255.328 469.631 255.672C470.015 256.008 470.323 256.424 470.555 256.92C470.795 257.408 470.915 258.008 470.915 258.72C470.915 259.48 470.783 260.192 470.519 260.856C470.263 261.52 469.887 262.1 469.391 262.596C468.895 263.092 468.283 263.484 467.555 263.772C466.835 264.052 466.015 264.192 465.095 264.192C464.543 264.192 464.007 264.136 463.487 264.024C462.967 263.92 462.475 263.772 462.011 263.58C461.547 263.38 461.111 263.144 460.703 262.872C460.303 262.592 459.943 262.28 459.623 261.936L460.355 260.712C460.427 260.616 460.511 260.536 460.607 260.472C460.711 260.408 460.827 260.376 460.955 260.376C461.123 260.376 461.315 260.464 461.531 260.64C461.755 260.816 462.027 261.012 462.347 261.228C462.675 261.436 463.063 261.628 463.511 261.804C463.967 261.98 464.519 262.068 465.167 262.068C465.695 262.068 466.167 262 466.583 261.864C466.999 261.72 467.347 261.52 467.627 261.264C467.915 261 468.135 260.684 468.287 260.316C468.439 259.948 468.515 259.54 468.515 259.092C468.515 258.588 468.399 258.176 468.167 257.856C467.935 257.536 467.627 257.268 467.243 257.052C466.859 256.836 466.423 256.652 465.935 256.5C465.447 256.348 464.947 256.192 464.435 256.032C463.923 255.864 463.423 255.672 462.935 255.456C462.447 255.24 462.011 254.96 461.627 254.616C461.243 254.264 460.935 253.828 460.703 253.308C460.471 252.78 460.355 252.132 460.355 251.364C460.355 250.748 460.475 250.152 460.715 249.576C460.955 249 461.303 248.492 461.759 248.052C462.223 247.604 462.791 247.248 463.463 246.984C464.135 246.712 464.903 246.576 465.767 246.576C466.735 246.576 467.623 246.732 468.431 247.044C469.247 247.348 469.955 247.788 470.555 248.364L469.931 249.576ZM482.985 249.576C482.905 249.712 482.821 249.812 482.733 249.876C482.645 249.94 482.533 249.972 482.397 249.972C482.253 249.972 482.089 249.908 481.905 249.78C481.721 249.644 481.489 249.496 481.209 249.336C480.937 249.168 480.609 249.02 480.225 248.892C479.841 248.756 479.381 248.688 478.845 248.688C478.341 248.688 477.897 248.756 477.513 248.892C477.137 249.02 476.821 249.2 476.565 249.432C476.309 249.656 476.113 249.924 475.977 250.236C475.849 250.54 475.785 250.872 475.785 251.232C475.785 251.696 475.901 252.08 476.133 252.384C476.373 252.688 476.685 252.948 477.069 253.164C477.453 253.38 477.889 253.568 478.377 253.728C478.865 253.888 479.365 254.056 479.877 254.232C480.389 254.4 480.889 254.596 481.377 254.82C481.865 255.044 482.301 255.328 482.685 255.672C483.069 256.008 483.377 256.424 483.609 256.92C483.849 257.408 483.969 258.008 483.969 258.72C483.969 259.48 483.837 260.192 483.573 260.856C483.317 261.52 482.941 262.1 482.445 262.596C481.949 263.092 481.337 263.484 480.609 263.772C479.889 264.052 479.069 264.192 478.149 264.192C477.597 264.192 477.061 264.136 476.541 264.024C476.021 263.92 475.529 263.772 475.065 263.58C474.601 263.38 474.165 263.144 473.757 262.872C473.357 262.592 472.997 262.28 472.677 261.936L473.409 260.712C473.481 260.616 473.565 260.536 473.661 260.472C473.765 260.408 473.881 260.376 474.009 260.376C474.177 260.376 474.369 260.464 474.585 260.64C474.809 260.816 475.081 261.012 475.401 261.228C475.729 261.436 476.117 261.628 476.565 261.804C477.021 261.98 477.573 262.068 478.221 262.068C478.749 262.068 479.221 262 479.637 261.864C480.053 261.72 480.401 261.52 480.681 261.264C480.969 261 481.189 260.684 481.341 260.316C481.493 259.948 481.569 259.54 481.569 259.092C481.569 258.588 481.453 258.176 481.221 257.856C480.989 257.536 480.681 257.268 480.297 257.052C479.913 256.836 479.477 256.652 478.989 256.5C478.501 256.348 478.001 256.192 477.489 256.032C476.977 255.864 476.477 255.672 475.989 255.456C475.501 255.24 475.065 254.96 474.681 254.616C474.297 254.264 473.989 253.828 473.757 253.308C473.525 252.78 473.409 252.132 473.409 251.364C473.409 250.748 473.529 250.152 473.769 249.576C474.009 249 474.357 248.492 474.813 248.052C475.277 247.604 475.845 247.248 476.517 246.984C477.189 246.712 477.957 246.576 478.821 246.576C479.789 246.576 480.677 246.732 481.485 247.044C482.301 247.348 483.009 247.788 483.609 248.364L482.985 249.576ZM336.4 277.768V295H333.844V287.236H324.856V295H322.288V277.768H324.856V285.376H333.844V277.768H336.4ZM356.719 286.384C356.719 287.672 356.511 288.856 356.095 289.936C355.687 291.008 355.107 291.936 354.355 292.72C353.603 293.496 352.703 294.1 351.655 294.532C350.607 294.964 349.443 295.18 348.163 295.18C346.891 295.18 345.727 294.964 344.671 294.532C343.623 294.1 342.723 293.496 341.971 292.72C341.227 291.936 340.647 291.008 340.231 289.936C339.815 288.856 339.607 287.672 339.607 286.384C339.607 285.104 339.815 283.924 340.231 282.844C340.647 281.764 341.227 280.836 341.971 280.06C342.723 279.276 343.623 278.668 344.671 278.236C345.727 277.796 346.891 277.576 348.163 277.576C349.443 277.576 350.607 277.796 351.655 278.236C352.703 278.668 353.603 279.276 354.355 280.06C355.107 280.836 355.687 281.764 356.095 282.844C356.511 283.924 356.719 285.104 356.719 286.384ZM354.103 286.384C354.103 285.36 353.963 284.44 353.683 283.624C353.403 282.808 353.003 282.116 352.483 281.548C351.971 280.98 351.347 280.544 350.611 280.24C349.883 279.936 349.067 279.784 348.163 279.784C347.259 279.784 346.439 279.936 345.703 280.24C344.975 280.544 344.351 280.98 343.831 281.548C343.311 282.116 342.911 282.808 342.631 283.624C342.351 284.44 342.211 285.36 342.211 286.384C342.211 287.416 342.351 288.34 342.631 289.156C342.911 289.964 343.311 290.652 343.831 291.22C344.351 291.788 344.975 292.224 345.703 292.528C346.439 292.824 347.259 292.972 348.163 292.972C349.067 292.972 349.883 292.824 350.611 292.528C351.347 292.224 351.971 291.788 352.483 291.22C353.003 290.652 353.403 289.964 353.683 289.156C353.963 288.34 354.103 287.416 354.103 286.384ZM375.985 286.384C375.985 287.672 375.777 288.856 375.361 289.936C374.953 291.008 374.373 291.936 373.621 292.72C372.869 293.496 371.969 294.1 370.921 294.532C369.873 294.964 368.709 295.18 367.429 295.18C366.157 295.18 364.993 294.964 363.937 294.532C362.889 294.1 361.989 293.496 361.237 292.72C360.493 291.936 359.913 291.008 359.497 289.936C359.081 288.856 358.873 287.672 358.873 286.384C358.873 285.104 359.081 283.924 359.497 282.844C359.913 281.764 360.493 280.836 361.237 280.06C361.989 279.276 362.889 278.668 363.937 278.236C364.993 277.796 366.157 277.576 367.429 277.576C368.709 277.576 369.873 277.796 370.921 278.236C371.969 278.668 372.869 279.276 373.621 280.06C374.373 280.836 374.953 281.764 375.361 282.844C375.777 283.924 375.985 285.104 375.985 286.384ZM373.369 286.384C373.369 285.36 373.229 284.44 372.949 283.624C372.669 282.808 372.269 282.116 371.749 281.548C371.237 280.98 370.613 280.544 369.877 280.24C369.149 279.936 368.333 279.784 367.429 279.784C366.525 279.784 365.705 279.936 364.969 280.24C364.241 280.544 363.617 280.98 363.097 281.548C362.577 282.116 362.177 282.808 361.897 283.624C361.617 284.44 361.477 285.36 361.477 286.384C361.477 287.416 361.617 288.34 361.897 289.156C362.177 289.964 362.577 290.652 363.097 291.22C363.617 291.788 364.241 292.224 364.969 292.528C365.705 292.824 366.525 292.972 367.429 292.972C368.333 292.972 369.149 292.824 369.877 292.528C370.613 292.224 371.237 291.788 371.749 291.22C372.269 290.652 372.669 289.964 372.949 289.156C373.229 288.34 373.369 287.416 373.369 286.384ZM384.414 286.636C385.062 286.636 385.63 286.552 386.118 286.384C386.614 286.216 387.026 285.98 387.354 285.676C387.69 285.364 387.942 284.996 388.11 284.572C388.278 284.14 388.362 283.664 388.362 283.144C388.362 282.096 388.034 281.272 387.378 280.672C386.73 280.072 385.742 279.772 384.414 279.772H381.75V286.636H384.414ZM384.414 277.768C385.518 277.768 386.478 277.896 387.294 278.152C388.11 278.408 388.786 278.772 389.322 279.244C389.858 279.708 390.254 280.272 390.51 280.936C390.774 281.6 390.906 282.336 390.906 283.144C390.906 283.952 390.766 284.696 390.486 285.376C390.206 286.048 389.794 286.628 389.25 287.116C388.706 287.604 388.026 287.984 387.21 288.256C386.402 288.52 385.47 288.652 384.414 288.652H381.75V295H379.194V277.768H384.414ZM402.642 280.576C402.562 280.712 402.478 280.812 402.39 280.876C402.302 280.94 402.19 280.972 402.054 280.972C401.91 280.972 401.746 280.908 401.562 280.78C401.378 280.644 401.146 280.496 400.866 280.336C400.594 280.168 400.266 280.02 399.882 279.892C399.498 279.756 399.038 279.688 398.502 279.688C397.998 279.688 397.554 279.756 397.17 279.892C396.794 280.02 396.478 280.2 396.222 280.432C395.966 280.656 395.77 280.924 395.634 281.236C395.506 281.54 395.442 281.872 395.442 282.232C395.442 282.696 395.558 283.08 395.79 283.384C396.03 283.688 396.342 283.948 396.726 284.164C397.11 284.38 397.546 284.568 398.034 284.728C398.522 284.888 399.022 285.056 399.534 285.232C400.046 285.4 400.546 285.596 401.034 285.82C401.522 286.044 401.958 286.328 402.342 286.672C402.726 287.008 403.034 287.424 403.266 287.92C403.506 288.408 403.626 289.008 403.626 289.72C403.626 290.48 403.494 291.192 403.23 291.856C402.974 292.52 402.598 293.1 402.102 293.596C401.606 294.092 400.994 294.484 400.266 294.772C399.546 295.052 398.726 295.192 397.806 295.192C397.254 295.192 396.718 295.136 396.198 295.024C395.678 294.92 395.186 294.772 394.722 294.58C394.258 294.38 393.822 294.144 393.414 293.872C393.014 293.592 392.654 293.28 392.334 292.936L393.066 291.712C393.138 291.616 393.222 291.536 393.318 291.472C393.422 291.408 393.538 291.376 393.666 291.376C393.834 291.376 394.026 291.464 394.242 291.64C394.466 291.816 394.738 292.012 395.058 292.228C395.386 292.436 395.774 292.628 396.222 292.804C396.678 292.98 397.23 293.068 397.878 293.068C398.406 293.068 398.878 293 399.294 292.864C399.71 292.72 400.058 292.52 400.338 292.264C400.626 292 400.846 291.684 400.998 291.316C401.15 290.948 401.226 290.54 401.226 290.092C401.226 289.588 401.11 289.176 400.878 288.856C400.646 288.536 400.338 288.268 399.954 288.052C399.57 287.836 399.134 287.652 398.646 287.5C398.158 287.348 397.658 287.192 397.146 287.032C396.634 286.864 396.134 286.672 395.646 286.456C395.158 286.24 394.722 285.96 394.338 285.616C393.954 285.264 393.646 284.828 393.414 284.308C393.182 283.78 393.066 283.132 393.066 282.364C393.066 281.748 393.186 281.152 393.426 280.576C393.666 280 394.014 279.492 394.47 279.052C394.934 278.604 395.502 278.248 396.174 277.984C396.846 277.712 397.614 277.576 398.478 277.576C399.446 277.576 400.334 277.732 401.142 278.044C401.958 278.348 402.666 278.788 403.266 279.364L402.642 280.576ZM421.767 280.576C421.687 280.712 421.603 280.812 421.515 280.876C421.427 280.94 421.315 280.972 421.179 280.972C421.035 280.972 420.871 280.908 420.687 280.78C420.503 280.644 420.271 280.496 419.991 280.336C419.719 280.168 419.391 280.02 419.007 279.892C418.623 279.756 418.163 279.688 417.627 279.688C417.123 279.688 416.679 279.756 416.295 279.892C415.919 280.02 415.603 280.2 415.347 280.432C415.091 280.656 414.895 280.924 414.759 281.236C414.631 281.54 414.567 281.872 414.567 282.232C414.567 282.696 414.683 283.08 414.915 283.384C415.155 283.688 415.467 283.948 415.851 284.164C416.235 284.38 416.671 284.568 417.159 284.728C417.647 284.888 418.147 285.056 418.659 285.232C419.171 285.4 419.671 285.596 420.159 285.82C420.647 286.044 421.083 286.328 421.467 286.672C421.851 287.008 422.159 287.424 422.391 287.92C422.631 288.408 422.751 289.008 422.751 289.72C422.751 290.48 422.619 291.192 422.355 291.856C422.099 292.52 421.723 293.1 421.227 293.596C420.731 294.092 420.119 294.484 419.391 294.772C418.671 295.052 417.851 295.192 416.931 295.192C416.379 295.192 415.843 295.136 415.323 295.024C414.803 294.92 414.311 294.772 413.847 294.58C413.383 294.38 412.947 294.144 412.539 293.872C412.139 293.592 411.779 293.28 411.459 292.936L412.191 291.712C412.263 291.616 412.347 291.536 412.443 291.472C412.547 291.408 412.663 291.376 412.791 291.376C412.959 291.376 413.151 291.464 413.367 291.64C413.591 291.816 413.863 292.012 414.183 292.228C414.511 292.436 414.899 292.628 415.347 292.804C415.803 292.98 416.355 293.068 417.003 293.068C417.531 293.068 418.003 293 418.419 292.864C418.835 292.72 419.183 292.52 419.463 292.264C419.751 292 419.971 291.684 420.123 291.316C420.275 290.948 420.351 290.54 420.351 290.092C420.351 289.588 420.235 289.176 420.003 288.856C419.771 288.536 419.463 288.268 419.079 288.052C418.695 287.836 418.259 287.652 417.771 287.5C417.283 287.348 416.783 287.192 416.271 287.032C415.759 286.864 415.259 286.672 414.771 286.456C414.283 286.24 413.847 285.96 413.463 285.616C413.079 285.264 412.771 284.828 412.539 284.308C412.307 283.78 412.191 283.132 412.191 282.364C412.191 281.748 412.311 281.152 412.551 280.576C412.791 280 413.139 279.492 413.595 279.052C414.059 278.604 414.627 278.248 415.299 277.984C415.971 277.712 416.739 277.576 417.603 277.576C418.571 277.576 419.459 277.732 420.267 278.044C421.083 278.348 421.791 278.788 422.391 279.364L421.767 280.576ZM437.653 279.904H432.181V295H429.637V279.904H424.141V277.768H437.653V279.904ZM446.84 288.184V295H444.296V288.184L437.984 277.768H440.228C440.452 277.768 440.632 277.824 440.768 277.936C440.904 278.04 441.016 278.18 441.104 278.356L444.848 284.8C445 285.096 445.136 285.376 445.256 285.64C445.384 285.904 445.496 286.164 445.592 286.42C445.68 286.164 445.78 285.904 445.892 285.64C446.012 285.376 446.148 285.096 446.3 284.8L450.032 278.356C450.112 278.212 450.22 278.08 450.356 277.96C450.5 277.832 450.68 277.768 450.896 277.768H453.152L446.84 288.184ZM465.113 292.852V295H455.249V277.768H457.805V292.852H465.113ZM478.293 292.924L478.281 295H467.601V277.768H478.281V279.844H470.169V285.304H476.697V287.308H470.169V292.924H478.293ZM480.588 293.596C480.588 293.38 480.628 293.176 480.708 292.984C480.788 292.792 480.896 292.624 481.032 292.48C481.176 292.336 481.344 292.224 481.536 292.144C481.728 292.056 481.936 292.012 482.16 292.012C482.376 292.012 482.58 292.056 482.772 292.144C482.964 292.224 483.132 292.336 483.276 292.48C483.42 292.624 483.532 292.792 483.612 292.984C483.7 293.176 483.744 293.38 483.744 293.596C483.744 293.82 483.7 294.028 483.612 294.22C483.532 294.412 483.42 294.58 483.276 294.724C483.132 294.868 482.964 294.98 482.772 295.06C482.58 295.14 482.376 295.18 482.16 295.18C481.936 295.18 481.728 295.14 481.536 295.06C481.344 294.98 481.176 294.868 481.032 294.724C480.896 294.58 480.788 294.412 480.708 294.22C480.628 294.028 480.588 293.82 480.588 293.596Z" fill="#131313"/>
<path d="M285.247 93H261.847L293.647 8.99999H317.647L349.447 93H326.047L320.647 78H290.647L285.247 93ZM296.047 62.4H315.247L305.647 34.2L296.047 62.4ZM395.042 93H351.842V76.2H362.642V25.8H351.842V8.99999H395.042V25.8H384.242V76.2H395.042V93ZM405.833 8.99999H456.233C464.633 8.99999 470.713 10.92 474.473 14.76C478.313 18.52 480.233 24.6 480.233 33V43.8C480.233 50.44 479.113 55.6 476.873 59.28C474.713 62.96 471.233 65.4 466.433 66.6L481.433 93H458.033L444.233 67.8H427.433V93H405.833V8.99999ZM458.633 33C458.633 28.2 456.233 25.8 451.433 25.8H427.433V51H451.433C456.233 51 458.633 48.6 458.633 43.8V33ZM48.1953 179.4C48.1953 187.24 46.3553 193 42.6753 196.68C38.9953 200.36 33.3153 202.2 25.6353 202.2C18.0353 202.2 9.95531 201.8 1.39531 201V184.8C7.63531 185.2 14.0353 185.4 20.5953 185.4C22.4353 185.4 23.8753 184.88 24.9153 183.84C26.0353 182.72 26.5953 181.24 26.5953 179.4V133.8H10.9953V117H48.1953V179.4ZM116.591 139.8C116.591 135 114.191 132.6 109.391 132.6H88.9906C84.1906 132.6 81.7906 135 81.7906 139.8V178.2C81.7906 183 84.1906 185.4 88.9906 185.4H109.391C114.191 185.4 116.591 183 116.591 178.2V139.8ZM138.191 178.2C138.191 186.6 136.271 192.72 132.431 196.56C128.671 200.32 122.591 202.2 114.191 202.2H84.1906C75.7906 202.2 69.6706 200.32 65.8306 196.56C62.0706 192.72 60.1906 186.6 60.1906 178.2V139.8C60.1906 131.4 62.0706 125.32 65.8306 121.56C69.6706 117.72 75.7906 115.8 84.1906 115.8H114.191C122.591 115.8 128.671 117.72 132.431 121.56C136.271 125.32 138.191 131.4 138.191 139.8V178.2ZM150.247 117H200.647C209.047 117 215.127 118.92 218.887 122.76C222.727 126.52 224.647 132.6 224.647 141V151.8C224.647 158.44 223.527 163.6 221.287 167.28C219.127 170.96 215.647 173.4 210.847 174.6L225.847 201H202.447L188.647 175.8H171.847V201H150.247V117ZM203.047 141C203.047 136.2 200.647 133.8 195.847 133.8H171.847V159H195.847C200.647 159 203.047 156.6 203.047 151.8V141ZM283.414 117C292.454 117 299.294 119.36 303.934 124.08C308.654 128.72 311.014 135.56 311.014 144.6V173.4C311.014 182.44 308.654 189.32 303.934 194.04C299.294 198.68 292.454 201 283.414 201H236.614V117H283.414ZM289.414 144.6C289.414 137.4 285.814 133.8 278.614 133.8H258.214V184.2H278.614C285.814 184.2 289.414 180.6 289.414 173.4V144.6ZM334.348 201H310.948L342.748 117H366.748L398.548 201H375.148L369.748 186H339.748L334.348 201ZM345.148 170.4H364.348L354.748 142.2L345.148 170.4ZM477.744 201H454.944L426.144 150.6V201H404.544V117H427.344L456.144 167.4V117H477.744V201Z" fill="#323232"/>
</svg>
