<svg width="104" height="36" viewBox="0 0 104 36" fill="none" xmlns="http://www.w3.org/2000/svg">
<path d="M18.234 27.608V32H2.736V5.882H8.136V27.608H18.234ZM45.972 18.932C45.972 20.84 45.648 22.61 45 24.242C44.364 25.874 43.458 27.284 42.282 28.472C41.118 29.66 39.714 30.596 38.07 31.28C36.426 31.952 34.602 32.288 32.598 32.288C30.594 32.288 28.77 31.952 27.126 31.28C25.482 30.596 24.072 29.66 22.896 28.472C21.72 27.284 20.808 25.874 20.16 24.242C19.524 22.61 19.206 20.84 19.206 18.932C19.206 17.024 19.524 15.26 20.16 13.64C20.808 12.008 21.72 10.598 22.896 9.41C24.072 8.222 25.482 7.292 27.126 6.62C28.77 5.936 30.594 5.594 32.598 5.594C34.602 5.594 36.426 5.936 38.07 6.62C39.714 7.292 41.118 8.228 42.282 9.428C43.458 10.616 44.364 12.026 45 13.658C45.648 15.278 45.972 17.036 45.972 18.932ZM40.446 18.932C40.446 17.564 40.266 16.34 39.906 15.26C39.546 14.168 39.024 13.244 38.34 12.488C37.668 11.72 36.846 11.138 35.874 10.742C34.914 10.334 33.822 10.13 32.598 10.13C31.374 10.13 30.276 10.334 29.304 10.742C28.332 11.138 27.504 11.72 26.82 12.488C26.148 13.244 25.632 14.168 25.272 15.26C24.912 16.34 24.732 17.564 24.732 18.932C24.732 20.312 24.912 21.548 25.272 22.64C25.632 23.72 26.148 24.638 26.82 25.394C27.504 26.15 28.332 26.732 29.304 27.14C30.276 27.536 31.374 27.734 32.598 27.734C33.822 27.734 34.914 27.536 35.874 27.14C36.846 26.732 37.668 26.15 38.34 25.394C39.024 24.638 39.546 23.72 39.906 22.64C40.266 21.548 40.446 20.312 40.446 18.932ZM62.6237 18.698H71.5877V29.48C70.2557 30.452 68.8337 31.166 67.3217 31.622C65.8217 32.066 64.2317 32.288 62.5517 32.288C60.4037 32.288 58.4597 31.958 56.7197 31.298C54.9797 30.626 53.4917 29.696 52.2557 28.508C51.0197 27.32 50.0657 25.91 49.3937 24.278C48.7217 22.646 48.3857 20.864 48.3857 18.932C48.3857 16.976 48.7037 15.182 49.3397 13.55C49.9877 11.918 50.9057 10.514 52.0937 9.338C53.2817 8.162 54.7157 7.244 56.3957 6.584C58.0877 5.924 59.9777 5.594 62.0657 5.594C63.1457 5.594 64.1537 5.684 65.0897 5.864C66.0257 6.032 66.8897 6.272 67.6817 6.584C68.4737 6.884 69.1997 7.244 69.8597 7.664C70.5197 8.084 71.1197 8.546 71.6597 9.05L70.0937 11.462C69.8537 11.846 69.5417 12.08 69.1577 12.164C68.7737 12.248 68.3537 12.152 67.8977 11.876C67.4657 11.612 67.0397 11.378 66.6197 11.174C66.2117 10.958 65.7737 10.772 65.3057 10.616C64.8377 10.46 64.3277 10.34 63.7757 10.256C63.2237 10.172 62.5877 10.13 61.8677 10.13C60.6557 10.13 59.5577 10.34 58.5737 10.76C57.5897 11.18 56.7497 11.774 56.0537 12.542C55.3697 13.31 54.8417 14.234 54.4697 15.314C54.0977 16.394 53.9117 17.6 53.9117 18.932C53.9117 20.372 54.1157 21.662 54.5237 22.802C54.9317 23.93 55.5077 24.884 56.2517 25.664C56.9957 26.444 57.8837 27.038 58.9157 27.446C59.9597 27.854 61.1177 28.058 62.3897 28.058C63.2537 28.058 64.0217 27.974 64.6937 27.806C65.3777 27.626 66.0437 27.386 66.6917 27.086V22.694H63.7397C63.3917 22.694 63.1157 22.604 62.9117 22.424C62.7197 22.232 62.6237 21.992 62.6237 21.704V18.698ZM101.238 18.932C101.238 20.84 100.914 22.61 100.266 24.242C99.6296 25.874 98.7236 27.284 97.5476 28.472C96.3836 29.66 94.9796 30.596 93.3356 31.28C91.6916 31.952 89.8676 32.288 87.8636 32.288C85.8596 32.288 84.0356 31.952 82.3916 31.28C80.7476 30.596 79.3376 29.66 78.1616 28.472C76.9856 27.284 76.0736 25.874 75.4256 24.242C74.7896 22.61 74.4716 20.84 74.4716 18.932C74.4716 17.024 74.7896 15.26 75.4256 13.64C76.0736 12.008 76.9856 10.598 78.1616 9.41C79.3376 8.222 80.7476 7.292 82.3916 6.62C84.0356 5.936 85.8596 5.594 87.8636 5.594C89.8676 5.594 91.6916 5.936 93.3356 6.62C94.9796 7.292 96.3836 8.228 97.5476 9.428C98.7236 10.616 99.6296 12.026 100.266 13.658C100.914 15.278 101.238 17.036 101.238 18.932ZM95.7116 18.932C95.7116 17.564 95.5316 16.34 95.1716 15.26C94.8116 14.168 94.2896 13.244 93.6056 12.488C92.9336 11.72 92.1116 11.138 91.1396 10.742C90.1796 10.334 89.0876 10.13 87.8636 10.13C86.6396 10.13 85.5416 10.334 84.5696 10.742C83.5976 11.138 82.7696 11.72 82.0856 12.488C81.4136 13.244 80.8976 14.168 80.5376 15.26C80.1776 16.34 79.9976 17.564 79.9976 18.932C79.9976 20.312 80.1776 21.548 80.5376 22.64C80.8976 23.72 81.4136 24.638 82.0856 25.394C82.7696 26.15 83.5976 26.732 84.5696 27.14C85.5416 27.536 86.6396 27.734 87.8636 27.734C89.0876 27.734 90.1796 27.536 91.1396 27.14C92.1116 26.732 92.9336 26.15 93.6056 25.394C94.2896 24.638 94.8116 23.72 95.1716 22.64C95.5316 21.548 95.7116 20.312 95.7116 18.932Z" fill="black"/>
</svg>
