<svg width="71" height="50" viewBox="0 0 71 50" fill="none" xmlns="http://www.w3.org/2000/svg">
<path fill-rule="evenodd" clip-rule="evenodd" d="M35.648 34.5915C33.191 36.6431 30.0037 37.8815 26.5208 37.8815C18.7498 37.8815 12.4502 31.7159 12.4502 24.1102C12.4502 16.5045 18.7498 10.3389 26.5208 10.3389C30.0037 10.3389 33.191 11.5773 35.648 13.6289C38.1051 11.5773 41.2924 10.3389 44.7752 10.3389C52.5462 10.3389 58.8458 16.5045 58.8458 24.1102C58.8458 31.7159 52.5462 37.8815 44.7752 37.8815C41.2924 37.8815 38.1051 36.6431 35.648 34.5915Z" fill="#ED0006"/>
<path fill-rule="evenodd" clip-rule="evenodd" d="M35.6475 34.5921C38.6731 32.0662 40.5916 28.3075 40.5916 24.1102C40.5916 19.9129 38.6731 16.1542 35.6475 13.6283C38.1044 11.5771 41.2914 10.3389 44.774 10.3389C52.545 10.3389 58.8446 16.5045 58.8446 24.1102C58.8446 31.7159 52.545 37.8815 44.774 37.8815C41.2914 37.8815 38.1044 36.6433 35.6475 34.5921Z" fill="#F9A000"/>
<path fill-rule="evenodd" clip-rule="evenodd" d="M35.6476 34.5915C38.6728 32.0656 40.591 28.3072 40.591 24.1102C40.591 19.9133 38.6728 16.1548 35.6476 13.6289C32.6224 16.1548 30.7041 19.9133 30.7041 24.1102C30.7041 28.3072 32.6224 32.0656 35.6476 34.5915Z" fill="#FF5E00"/>
<rect x="0.5" y="0.5" width="69.5536" height="48.3302" rx="9.5" stroke="#A9A9A9"/>
</svg>
