<svg width="71" height="50" viewBox="0 0 71 50" fill="none" xmlns="http://www.w3.org/2000/svg">
<path fill-rule="evenodd" clip-rule="evenodd" d="M30.1939 38.1139L30.6499 35.12L29.6341 35.0955H24.7832L28.1544 13.0023C28.1649 12.9354 28.1988 12.8733 28.2484 12.8292C28.2983 12.785 28.3618 12.7607 28.4282 12.7607H36.6075C39.3231 12.7607 41.197 13.3447 42.1753 14.4974C42.634 15.0381 42.9261 15.6034 43.0675 16.2252C43.2158 16.8778 43.2182 17.6574 43.0736 18.6084L43.0631 18.6776V19.287L43.5218 19.5556C43.908 19.7674 44.215 20.0098 44.4505 20.2872C44.8428 20.7497 45.0965 21.3374 45.2038 22.034C45.3147 22.7504 45.278 23.6032 45.0965 24.5686C44.8872 25.6789 44.5489 26.6461 44.0919 27.4373C43.6718 28.1664 43.1364 28.7712 42.5006 29.2398C41.8936 29.6851 41.1726 30.0232 40.3573 30.2395C39.5671 30.4521 38.6663 30.5594 37.6783 30.5594H37.0418C36.5867 30.5594 36.1446 30.7288 35.7976 31.0325C35.4495 31.3425 35.2194 31.7661 35.1488 32.2294L35.1007 32.499L34.2949 37.7761L34.2585 37.9697C34.2488 38.0311 34.2321 38.0616 34.2077 38.0823C34.186 38.1013 34.1547 38.1139 34.1242 38.1139H30.1939Z" fill="#28356A"/>
<path fill-rule="evenodd" clip-rule="evenodd" d="M43.9565 18.748C43.9323 18.9094 43.9042 19.0742 43.8729 19.2436C42.7943 24.9678 39.1039 26.9453 34.3908 26.9453H31.991C31.4145 26.9453 30.9287 27.3777 30.8391 27.9655L29.2624 38.3023C29.2041 38.6883 29.4918 39.0359 29.8684 39.0359H34.1248C34.6287 39.0359 35.0569 38.6575 35.1362 38.1437L35.178 37.9203L35.9794 32.6639L36.0309 32.3756C36.1093 31.8601 36.5385 31.4814 37.0424 31.4814H37.6789C41.8027 31.4814 45.031 29.7511 45.9745 24.7434C46.3685 22.6515 46.1645 20.9048 45.1216 19.6763C44.806 19.306 44.4145 18.9985 43.9565 18.748Z" fill="#298FC2"/>
<path fill-rule="evenodd" clip-rule="evenodd" d="M42.828 18.283C42.6632 18.2332 42.4932 18.1883 42.3188 18.1476C42.1434 18.108 41.9639 18.0729 41.779 18.0421C41.1319 17.9341 40.4229 17.8828 39.6635 17.8828H33.2526C33.0945 17.8828 32.9446 17.9197 32.8105 17.9863C32.5147 18.1332 32.2951 18.4226 32.2419 18.7768L30.8779 27.7051L30.8389 27.9654C30.9285 27.3777 31.4143 26.9452 31.9908 26.9452H34.3906C39.1037 26.9452 42.7941 24.9667 43.8727 19.2436C43.905 19.0742 43.9321 18.9093 43.9562 18.748C43.6834 18.5983 43.3879 18.4703 43.0696 18.3612C42.991 18.3342 42.9099 18.3082 42.828 18.283Z" fill="#22284F"/>
<path fill-rule="evenodd" clip-rule="evenodd" d="M32.2418 18.7769C32.2951 18.4227 32.5147 18.1334 32.8105 17.9875C32.9455 17.9206 33.0945 17.8837 33.2526 17.8837H39.6635C40.4229 17.8837 41.1319 17.9352 41.7789 18.0433C41.9638 18.0738 42.1434 18.1091 42.3187 18.1488C42.4931 18.1892 42.6631 18.2344 42.828 18.2838C42.9098 18.3091 42.9909 18.3354 43.0703 18.3614C43.3886 18.4704 43.6844 18.5994 43.9572 18.7481C44.2781 16.6328 43.9545 15.1925 42.848 13.8883C41.628 12.4524 39.4263 11.8379 36.6088 11.8379H28.4293C27.8538 11.8379 27.3629 12.2703 27.274 12.8591L23.8671 35.1795C23.7999 35.621 24.1294 36.0194 24.5603 36.0194H29.61L32.2418 18.7769Z" fill="#28356A"/>
<rect x="0.764648" y="0.5" width="68.98" height="48.3302" rx="9.5" stroke="#A9A9A9"/>
</svg>
