<svg width="70" height="50" viewBox="0 0 70 50" fill="none" xmlns="http://www.w3.org/2000/svg">
<path fill-rule="evenodd" clip-rule="evenodd" d="M22.1259 32.5959H17.8865L14.7074 20.128C14.5565 19.5544 14.2362 19.0474 13.7649 18.8084C12.5888 18.2079 11.2927 17.73 9.87891 17.4889V17.0089H16.7083C17.6509 17.0089 18.3578 17.73 18.4756 18.5674L20.1251 27.5609L24.3624 17.0089H28.484L22.1259 32.5959ZM30.8409 32.5959H26.8371L30.134 17.0089H34.1378L30.8409 32.5959ZM39.3171 21.327C39.4349 20.4875 40.1418 20.0074 40.9666 20.0074C42.2626 19.8869 43.6744 20.128 44.8526 20.7264L45.5595 17.3705C44.3813 16.8905 43.0853 16.6494 41.9091 16.6494C38.0232 16.6494 35.1955 18.8084 35.1955 21.8049C35.1955 24.0845 37.1984 25.2814 38.6123 26.0024C40.1418 26.7214 40.7309 27.2014 40.6131 27.9204C40.6131 28.9989 39.4349 29.4789 38.2588 29.4789C36.845 29.4789 35.4311 29.1194 34.1372 28.5189L33.4303 31.8769C34.8441 32.4754 36.3737 32.7164 37.7875 32.7164C42.1448 32.8349 44.8526 30.6779 44.8526 27.4404C44.8526 23.3634 39.3171 23.1244 39.3171 21.327ZM58.8646 32.5959L55.6855 17.0089H52.2708C51.5639 17.0089 50.857 17.4889 50.6213 18.2079L44.7345 32.5959H48.8561L49.6788 30.3184H54.743L55.2142 32.5959H58.8646ZM52.8606 21.2065L54.0367 27.0809H50.7399L52.8606 21.2065Z" fill="#172B85"/>
<rect x="0.5" y="0.5" width="68.98" height="48.3302" rx="9.5" stroke="#A9A9A9"/>
</svg>
