<svg width="28" height="28" viewBox="0 0 28 28" fill="none" xmlns="http://www.w3.org/2000/svg">
<path d="M26.8445 6.85666C26.4256 5.88678 25.8216 5.00788 25.0664 4.26916C24.3105 3.52824 23.4194 2.93945 22.4414 2.53479C21.4272 2.11352 20.3395 1.89789 19.2414 1.90041C17.7007 1.90041 16.1976 2.32229 14.8914 3.11916C14.5789 3.30979 14.282 3.51916 14.0007 3.74729C13.7195 3.51916 13.4226 3.30979 13.1101 3.11916C11.8039 2.32229 10.3007 1.90041 8.76011 1.90041C7.65073 1.90041 6.57573 2.11291 5.56011 2.53479C4.57886 2.94104 3.69448 3.52541 2.93511 4.26916C2.17885 5.00705 1.57473 5.88615 1.15698 6.85666C0.722607 7.86604 0.500732 8.93791 0.500732 10.041C0.500732 11.0817 0.713233 12.166 1.13511 13.2692C1.48823 14.191 1.99448 15.1473 2.64136 16.1129C3.66636 17.641 5.07573 19.2348 6.82573 20.8504C9.72573 23.5285 12.5976 25.3785 12.7195 25.4535L13.4601 25.9285C13.7882 26.1379 14.2101 26.1379 14.5382 25.9285L15.2789 25.4535C15.4007 25.3754 18.2695 23.5285 21.1726 20.8504C22.9226 19.2348 24.332 17.641 25.357 16.1129C26.0039 15.1473 26.5132 14.191 26.8632 13.2692C27.2851 12.166 27.4976 11.0817 27.4976 10.041C27.5007 8.93791 27.2789 7.86604 26.8445 6.85666ZM14.0007 23.4567C14.0007 23.4567 2.87573 16.3285 2.87573 10.041C2.87573 6.85666 5.51011 4.27541 8.76011 4.27541C11.0445 4.27541 13.0257 5.55041 14.0007 7.41291C14.9757 5.55041 16.957 4.27541 19.2414 4.27541C22.4914 4.27541 25.1257 6.85666 25.1257 10.041C25.1257 16.3285 14.0007 23.4567 14.0007 23.4567Z" fill="#131313"/>
</svg>
