<svg width="20" height="20" viewBox="0 0 20 20" fill="none" xmlns="http://www.w3.org/2000/svg">
<g clip-path="url(#clip0_344_18514)">
<path d="M10.9174 9.93527L9.18077 12.1496L8.26336 10.9799C8.24665 10.9586 8.22531 10.9413 8.20095 10.9294C8.17658 10.9176 8.14984 10.9114 8.12273 10.9114C8.09563 10.9114 8.06888 10.9176 8.04452 10.9294C8.02016 10.9413 7.99881 10.9586 7.98211 10.9799L5.75443 13.8192C5.73382 13.8455 5.72103 13.8771 5.71753 13.9103C5.71402 13.9436 5.71994 13.9771 5.73461 14.0072C5.74928 14.0372 5.77211 14.0625 5.80048 14.0802C5.82885 14.0979 5.86163 14.1072 5.89506 14.1071H14.1071C14.2567 14.1071 14.3393 13.9353 14.2477 13.8192L11.2009 9.93527C11.1839 9.91389 11.1624 9.89662 11.1378 9.88475C11.1133 9.87288 11.0864 9.86671 11.0591 9.86671C11.0319 9.86671 11.0049 9.87288 10.9804 9.88475C10.9558 9.89662 10.9343 9.91389 10.9174 9.93527ZM6.60711 8.4375C6.60711 8.6743 6.70118 8.9014 6.86862 9.06885C7.03606 9.23629 7.26316 9.33036 7.49997 9.33036C7.73677 9.33036 7.96387 9.23629 8.13131 9.06885C8.29875 8.9014 8.39282 8.6743 8.39282 8.4375C8.39282 8.2007 8.29875 7.9736 8.13131 7.80615C7.96387 7.63871 7.73677 7.54464 7.49997 7.54464C7.26316 7.54464 7.03606 7.63871 6.86862 7.80615C6.70118 7.9736 6.60711 8.2007 6.60711 8.4375ZM17.6473 5.01339L12.8437 0.209821C12.7098 0.0758929 12.529 0 12.3393 0H2.85711C2.46202 0 2.14282 0.319196 2.14282 0.714286V19.2857C2.14282 19.6808 2.46202 20 2.85711 20H17.1428C17.5379 20 17.8571 19.6808 17.8571 19.2857V5.52009C17.8571 5.33036 17.7812 5.14732 17.6473 5.01339ZM16.2098 5.84821H12.0089V1.64732L16.2098 5.84821ZM16.25 18.3929H3.74997V1.60714H10.491V6.42857C10.491 6.67721 10.5898 6.91567 10.7656 7.09148C10.9414 7.2673 11.1799 7.36607 11.4285 7.36607H16.25V18.3929Z" fill="#131313"/>
</g>
<defs>
<clipPath id="clip0_344_18514">
<rect width="20" height="20" fill="white"/>
</clipPath>
</defs>
</svg>
