<svg width="28" height="28" viewBox="0 0 28 28" fill="none" xmlns="http://www.w3.org/2000/svg">
<path d="M26.4255 24.707L18.3099 16.5914C19.5692 14.9633 20.2505 12.9727 20.2505 10.8789C20.2505 8.37266 19.2724 6.02266 17.5036 4.25078C15.7349 2.47891 13.3786 1.50391 10.8755 1.50391C8.37236 1.50391 6.01611 2.48203 4.24736 4.25078C2.47549 6.01953 1.50049 8.37266 1.50049 10.8789C1.50049 13.382 2.47861 15.7383 4.24736 17.507C6.01611 19.2789 8.36924 20.2539 10.8755 20.2539C12.9692 20.2539 14.9567 19.5727 16.5849 18.3164L24.7005 26.4289C24.7243 26.4527 24.7525 26.4716 24.7836 26.4845C24.8147 26.4974 24.8481 26.504 24.8817 26.504C24.9154 26.504 24.9487 26.4974 24.9798 26.4845C25.0109 26.4716 25.0392 26.4527 25.063 26.4289L26.4255 25.0695C26.4493 25.0457 26.4682 25.0175 26.4811 24.9864C26.494 24.9553 26.5006 24.9219 26.5006 24.8883C26.5006 24.8546 26.494 24.8213 26.4811 24.7902C26.4682 24.7591 26.4493 24.7308 26.4255 24.707ZM15.8255 15.8289C14.5005 17.1508 12.7442 17.8789 10.8755 17.8789C9.00674 17.8789 7.25049 17.1508 5.92549 15.8289C4.60361 14.5039 3.87549 12.7477 3.87549 10.8789C3.87549 9.01016 4.60361 7.25078 5.92549 5.92891C7.25049 4.60703 9.00674 3.87891 10.8755 3.87891C12.7442 3.87891 14.5036 4.60391 15.8255 5.92891C17.1474 7.25391 17.8755 9.01016 17.8755 10.8789C17.8755 12.7477 17.1474 14.507 15.8255 15.8289Z" fill="#131313"/>
</svg>
