<svg width="43" height="30" viewBox="0 0 43 30" fill="none" xmlns="http://www.w3.org/2000/svg">
<rect x="0.591797" y="0.5" width="41.4006" height="28.6459" rx="3.5" fill="white" stroke="#E2E2E2"/>
<path fill-rule="evenodd" clip-rule="evenodd" d="M21.5154 20.7885C20.0387 22.0214 18.1233 22.7657 16.0302 22.7657C11.3601 22.7657 7.57422 19.0603 7.57422 14.4895C7.57422 9.91874 11.3601 6.21338 16.0302 6.21338C18.1233 6.21338 20.0387 6.95765 21.5154 8.19054C22.992 6.95765 24.9074 6.21338 27.0005 6.21338C31.6706 6.21338 35.4565 9.91874 35.4565 14.4895C35.4565 19.0603 31.6706 22.7657 27.0005 22.7657C24.9074 22.7657 22.992 22.0214 21.5154 20.7885Z" fill="#ED0006"/>
<path fill-rule="evenodd" clip-rule="evenodd" d="M21.5156 20.7887C23.3339 19.2707 24.4868 17.0119 24.4868 14.4895C24.4868 11.9672 23.3339 9.70833 21.5156 8.19033C22.9922 6.95757 24.9076 6.21338 27.0005 6.21338C31.6706 6.21338 35.4565 9.91874 35.4565 14.4895C35.4565 19.0603 31.6706 22.7657 27.0005 22.7657C24.9076 22.7657 22.9922 22.0215 21.5156 20.7887Z" fill="#F9A000"/>
<path fill-rule="evenodd" clip-rule="evenodd" d="M21.5159 20.7884C19.6978 19.2704 18.5449 17.0117 18.5449 14.4894C18.5449 11.9671 19.6977 9.70843 21.5158 8.19043C23.3339 9.70843 24.4868 11.9672 24.4868 14.4895C24.4868 17.0117 23.334 19.2704 21.5159 20.7884Z" fill="#FF5E00"/>
</svg>
