<svg width="43" height="30" viewBox="0 0 43 30" fill="none" xmlns="http://www.w3.org/2000/svg">
<rect x="1.44434" y="0.5" width="41.0558" height="28.6459" rx="3.5" fill="white" stroke="#E2E2E2"/>
<path fill-rule="evenodd" clip-rule="evenodd" d="M18.9304 22.7911L19.2044 20.9919L18.5939 20.9772H15.6787L17.7047 7.69988C17.711 7.65968 17.7314 7.62235 17.7612 7.5958C17.7911 7.56925 17.8293 7.55469 17.8692 7.55469H22.7848C24.4168 7.55469 25.5429 7.90561 26.1308 8.59836C26.4065 8.92334 26.582 9.26304 26.667 9.63672C26.7561 10.0289 26.7576 10.4974 26.6707 11.0689L26.6644 11.1105V11.4768L26.9401 11.6382C27.1721 11.7655 27.3566 11.9111 27.4981 12.0779C27.7339 12.3558 27.8864 12.709 27.9508 13.1276C28.0175 13.5582 27.9955 14.0707 27.8864 14.6509C27.7606 15.3181 27.5573 15.8993 27.2827 16.3748C27.0302 16.813 26.7084 17.1765 26.3263 17.4581C25.9616 17.7257 25.5282 17.9289 25.0383 18.0589C24.5634 18.1867 24.022 18.2511 23.4283 18.2511H23.0457C22.7723 18.2511 22.5066 18.3529 22.298 18.5355C22.0888 18.7218 21.9506 18.9763 21.9081 19.2547L21.8792 19.4168L21.395 22.5882L21.3731 22.7045C21.3672 22.7414 21.3572 22.7597 21.3426 22.7722C21.3295 22.7836 21.3107 22.7911 21.2924 22.7911H18.9304" fill="#28356A"/>
<path fill-rule="evenodd" clip-rule="evenodd" d="M27.2014 11.1528C27.1869 11.2498 27.17 11.3489 27.1512 11.4507C26.503 14.8907 24.2852 16.0791 21.4527 16.0791H20.0105C19.6641 16.0791 19.3721 16.339 19.3183 16.6922L18.3707 22.9043C18.3357 23.1363 18.5086 23.3452 18.7349 23.3452H21.2929C21.5957 23.3452 21.853 23.1178 21.9007 22.809L21.9258 22.6748L22.4074 19.5158L22.4384 19.3426C22.4855 19.0328 22.7434 18.8052 23.0463 18.8052H23.4288C25.907 18.8052 27.8471 17.7653 28.4142 14.7558C28.651 13.4987 28.5284 12.449 27.9016 11.7107C27.712 11.4881 27.4766 11.3033 27.2014 11.1528" fill="#298FC2"/>
<path fill-rule="evenodd" clip-rule="evenodd" d="M26.5235 10.8733C26.4244 10.8434 26.3222 10.8164 26.2174 10.792C26.112 10.7681 26.0041 10.7471 25.893 10.7285C25.5042 10.6636 25.0781 10.6328 24.6217 10.6328H20.7689C20.674 10.6328 20.5838 10.655 20.5032 10.695C20.3255 10.7833 20.1935 10.9572 20.1615 11.17L19.3418 16.5357L19.3184 16.6921C19.3722 16.3389 19.6642 16.079 20.0106 16.079H21.4528C24.2852 16.079 26.5031 14.89 27.1513 11.4506C27.1707 11.3488 27.187 11.2497 27.2015 11.1528C27.0375 11.0628 26.8599 10.9859 26.6687 10.9203C26.6214 10.9041 26.5727 10.8885 26.5235 10.8733" fill="#22284F"/>
<path fill-rule="evenodd" clip-rule="evenodd" d="M20.1612 11.1701C20.1932 10.9573 20.3252 10.7834 20.503 10.6957C20.5841 10.6555 20.6737 10.6333 20.7686 10.6333H24.6214C25.0778 10.6333 25.5039 10.6643 25.8927 10.7292C26.0039 10.7476 26.1118 10.7688 26.2171 10.7927C26.322 10.8169 26.4241 10.8441 26.5232 10.8738C26.5724 10.889 26.6211 10.9048 26.6688 10.9204C26.8601 10.9859 27.0378 11.0635 27.2018 11.1528C27.3947 9.88159 27.2002 9.01603 26.5352 8.23226C25.802 7.36928 24.4789 7 22.7857 7H17.87C17.5242 7 17.2291 7.25989 17.1757 7.6137L15.1283 21.0276C15.0879 21.2929 15.2859 21.5323 15.5449 21.5323H18.5796L20.1612 11.1701" fill="#28356A"/>
</svg>
