<svg width="28" height="28" viewBox="0 0 28 28" fill="none" xmlns="http://www.w3.org/2000/svg">
<path d="M25.2369 19.1926H8.95371L9.77129 17.5273L23.3557 17.5027C23.815 17.5027 24.2088 17.1746 24.2908 16.7207L26.1721 6.19062C26.2213 5.91445 26.1475 5.63008 25.967 5.41406C25.8778 5.30775 25.7665 5.22211 25.6409 5.16309C25.5154 5.10407 25.3784 5.07308 25.2396 5.07227L7.9584 5.01484L7.81074 4.32031C7.71777 3.87734 7.31855 3.55469 6.86465 3.55469H2.64004C2.38404 3.55469 2.13853 3.65638 1.95752 3.8374C1.7765 4.01841 1.6748 4.26393 1.6748 4.51992C1.6748 4.77592 1.7765 5.02143 1.95752 5.20245C2.13853 5.38346 2.38404 5.48516 2.64004 5.48516H6.08262L6.72793 8.55312L8.3166 16.2449L6.27129 19.5836C6.16507 19.727 6.1011 19.8972 6.0866 20.075C6.0721 20.2528 6.10766 20.4312 6.18926 20.5898C6.35332 20.9152 6.68418 21.1203 7.05059 21.1203H8.76777C8.40169 21.6065 8.20396 22.1988 8.20449 22.8074C8.20449 24.3551 9.4623 25.6129 11.01 25.6129C12.5576 25.6129 13.8154 24.3551 13.8154 22.8074C13.8154 22.1977 13.6131 21.6043 13.2521 21.1203H17.6572C17.2911 21.6065 17.0934 22.1988 17.0939 22.8074C17.0939 24.3551 18.3518 25.6129 19.8994 25.6129C21.4471 25.6129 22.7049 24.3551 22.7049 22.8074C22.7049 22.1977 22.5025 21.6043 22.1416 21.1203H25.2396C25.7701 21.1203 26.2049 20.6883 26.2049 20.1551C26.2033 19.8993 26.1006 19.6546 25.9193 19.4743C25.7379 19.294 25.4926 19.1927 25.2369 19.1926ZM8.36035 6.91797L24.1049 6.96992L22.5627 15.6051L10.1951 15.627L8.36035 6.91797ZM11.01 23.6715C10.5342 23.6715 10.1459 23.2832 10.1459 22.8074C10.1459 22.3316 10.5342 21.9434 11.01 21.9434C11.4857 21.9434 11.874 22.3316 11.874 22.8074C11.874 23.0366 11.783 23.2564 11.6209 23.4184C11.4589 23.5805 11.2391 23.6715 11.01 23.6715ZM19.8994 23.6715C19.4236 23.6715 19.0354 23.2832 19.0354 22.8074C19.0354 22.3316 19.4236 21.9434 19.8994 21.9434C20.3752 21.9434 20.7635 22.3316 20.7635 22.8074C20.7635 23.0366 20.6724 23.2564 20.5104 23.4184C20.3484 23.5805 20.1286 23.6715 19.8994 23.6715Z" fill="#131313"/>
</svg>
