<svg width="42" height="42" viewBox="0 0 42 42" fill="none" xmlns="http://www.w3.org/2000/svg">
<g clip-path="url(#clip0_111_3787)">
<path d="M21.3574 2.4375V40.2821" stroke="#7D7D7D" stroke-width="4" stroke-linecap="round" stroke-linejoin="round"/>
<path d="M29.9584 9.32031H17.0568C15.46 9.32031 13.9286 9.95464 12.7995 11.0837C11.6704 12.2129 11.0361 13.7442 11.0361 15.341C11.0361 16.9378 11.6704 18.4692 12.7995 19.5983C13.9286 20.7275 15.46 21.3618 17.0568 21.3618H25.6579C27.2547 21.3618 28.7861 21.9961 29.9152 23.1252C31.0443 24.2543 31.6786 25.7857 31.6786 27.3825C31.6786 28.9793 31.0443 30.5107 29.9152 31.6398C28.7861 32.7689 27.2547 33.4033 25.6579 33.4033H11.0361" stroke="#7D7D7D" stroke-width="4" stroke-linecap="round" stroke-linejoin="round"/>
</g>
<defs>
<clipPath id="clip0_111_3787">
<rect width="41.285" height="41.285" fill="white" transform="translate(0.714844 0.71875)"/>
</clipPath>
</defs>
</svg>
