<svg width="38" height="38" viewBox="0 0 38 38" fill="none" xmlns="http://www.w3.org/2000/svg">
<g clip-path="url(#clip0_111_3953)">
<path d="M26.9167 33.25V30.0833C26.9167 28.4036 26.2494 26.7927 25.0617 25.605C23.874 24.4173 22.2631 23.75 20.5834 23.75H7.91671C6.237 23.75 4.62609 24.4173 3.43836 25.605C2.25063 26.7927 1.58337 28.4036 1.58337 30.0833V33.25" stroke="#7D7D7D" stroke-width="4" stroke-linecap="round" stroke-linejoin="round"/>
<path d="M14.25 17.4167C17.7478 17.4167 20.5833 14.5811 20.5833 11.0833C20.5833 7.58553 17.7478 4.75 14.25 4.75C10.7522 4.75 7.91663 7.58553 7.91663 11.0833C7.91663 14.5811 10.7522 17.4167 14.25 17.4167Z" stroke="#7D7D7D" stroke-width="4" stroke-linecap="round" stroke-linejoin="round"/>
<path d="M36.4166 33.2473V30.0806C36.4156 28.6774 35.9485 27.3142 35.0888 26.2051C34.2291 25.0961 33.0253 24.3039 31.6666 23.9531" stroke="#7D7D7D" stroke-width="4" stroke-linecap="round" stroke-linejoin="round"/>
<path d="M25.3334 4.95312C26.6957 5.30193 27.9032 6.09423 28.7655 7.20512C29.6278 8.316 30.0958 9.68227 30.0958 11.0885C30.0958 12.4948 29.6278 13.8611 28.7655 14.972C27.9032 16.0828 26.6957 16.8751 25.3334 17.224" stroke="#7D7D7D" stroke-width="4" stroke-linecap="round" stroke-linejoin="round"/>
</g>
<defs>
<clipPath id="clip0_111_3953">
<rect width="38" height="38" fill="white"/>
</clipPath>
</defs>
</svg>
