<svg width="46" height="46" viewBox="0 0 46 46" fill="none" xmlns="http://www.w3.org/2000/svg">
<path d="M31.8483 18.4569L14.8665 8.66406" stroke="#7D7D7D" stroke-width="4" stroke-linecap="round" stroke-linejoin="round"/>
<path d="M40.3393 30.9124V15.8174C40.3386 15.1556 40.1639 14.5056 39.8327 13.9327C39.5015 13.3598 39.0255 12.884 38.4524 12.5531L25.2442 5.00559C24.6706 4.67437 24.0198 4.5 23.3574 4.5C22.6949 4.5 22.0442 4.67437 21.4705 5.00559L8.26236 12.5531C7.68925 12.884 7.21322 13.3598 6.88204 13.9327C6.55086 14.5056 6.37617 15.1556 6.37549 15.8174V30.9124C6.37617 31.5742 6.55086 32.2241 6.88204 32.7971C7.21322 33.37 7.68925 33.8458 8.26236 34.1767L21.4705 41.7242C22.0442 42.0554 22.6949 42.2298 23.3574 42.2298C24.0198 42.2298 24.6706 42.0554 25.2442 41.7242L38.4524 34.1767C39.0255 33.8458 39.5015 33.37 39.8327 32.7971C40.1639 32.2241 40.3386 31.5742 40.3393 30.9124Z" stroke="#7D7D7D" stroke-width="4" stroke-linecap="round" stroke-linejoin="round"/>
<path d="M6.88489 13.8516L23.3573 23.3803L39.8297 13.8516" stroke="#7D7D7D" stroke-width="4" stroke-linecap="round" stroke-linejoin="round"/>
<path d="M23.3574 42.3791V23.3594" stroke="#7D7D7D" stroke-width="4" stroke-linecap="round" stroke-linejoin="round"/>
</svg>
