<svg width="24" height="24" viewBox="0 0 24 24" fill="none" xmlns="http://www.w3.org/2000/svg">
<path d="M3 6.375H5H21" stroke="#7D7D7D" stroke-width="2" stroke-linecap="round" stroke-linejoin="round"/>
<path d="M19 6.375V19.5C19 19.9973 18.7893 20.4742 18.4142 20.8258C18.0391 21.1775 17.5304 21.375 17 21.375H7C6.46957 21.375 5.96086 21.1775 5.58579 20.8258C5.21071 20.4742 5 19.9973 5 19.5V6.375M8 6.375V4.5C8 4.00272 8.21071 3.52581 8.58579 3.17417C8.96086 2.82254 9.46957 2.625 10 2.625H14C14.5304 2.625 15.0391 2.82254 15.4142 3.17417C15.7893 3.52581 16 4.00272 16 4.5V6.375" stroke="#7D7D7D" stroke-width="2" stroke-linecap="round" stroke-linejoin="round"/>
<path d="M10 11.0625V16.6875" stroke="#7D7D7D" stroke-width="2" stroke-linecap="round" stroke-linejoin="round"/>
<path d="M14 11.0625V16.6875" stroke="#7D7D7D" stroke-width="2" stroke-linecap="round" stroke-linejoin="round"/>
</svg>
