<svg width="28" height="28" viewBox="0 0 28 28" fill="none" xmlns="http://www.w3.org/2000/svg">
<path d="M24.8272 21.8586C24.2377 20.4623 23.3823 19.1939 22.3085 18.1242C21.238 17.0514 19.9698 16.1961 18.5741 15.6055C18.5616 15.5992 18.5491 15.5961 18.5366 15.5898C20.4835 14.1836 21.7491 11.893 21.7491 9.30859C21.7491 5.02734 18.2804 1.55859 13.9991 1.55859C9.71785 1.55859 6.2491 5.02734 6.2491 9.30859C6.2491 11.893 7.51473 14.1836 9.4616 15.593C9.4491 15.5992 9.4366 15.6023 9.4241 15.6086C8.0241 16.1992 6.76785 17.0461 5.68973 18.1273C4.61694 19.1979 3.76162 20.466 3.17098 21.8617C2.59073 23.2281 2.2778 24.6931 2.2491 26.1773C2.24827 26.2107 2.25412 26.2439 2.26631 26.2749C2.2785 26.306 2.29678 26.3343 2.32008 26.3582C2.34338 26.3821 2.37122 26.401 2.40196 26.414C2.43271 26.4269 2.46574 26.4336 2.4991 26.4336H4.3741C4.5116 26.4336 4.62098 26.3242 4.6241 26.1898C4.6866 23.7773 5.65535 21.518 7.36785 19.8055C9.13973 18.0336 11.4929 17.0586 13.9991 17.0586C16.5054 17.0586 18.8585 18.0336 20.6304 19.8055C22.3429 21.518 23.3116 23.7773 23.3741 26.1898C23.3772 26.3273 23.4866 26.4336 23.6241 26.4336H25.4991C25.5325 26.4336 25.5655 26.4269 25.5962 26.414C25.627 26.401 25.6548 26.3821 25.6781 26.3582C25.7014 26.3343 25.7197 26.306 25.7319 26.2749C25.7441 26.2439 25.7499 26.2107 25.7491 26.1773C25.7179 24.6836 25.4085 23.2305 24.8272 21.8586ZM13.9991 14.6836C12.5647 14.6836 11.2147 14.1242 10.1991 13.1086C9.18348 12.093 8.6241 10.743 8.6241 9.30859C8.6241 7.87422 9.18348 6.52422 10.1991 5.50859C11.2147 4.49297 12.5647 3.93359 13.9991 3.93359C15.4335 3.93359 16.7835 4.49297 17.7991 5.50859C18.8147 6.52422 19.3741 7.87422 19.3741 9.30859C19.3741 10.743 18.8147 12.093 17.7991 13.1086C16.7835 14.1242 15.4335 14.6836 13.9991 14.6836Z" fill="black" fill-opacity="0.85"/>
</svg>
