<svg width="24" height="24" viewBox="0 0 24 24" fill="none" xmlns="http://www.w3.org/2000/svg">
<path d="M11.9997 0.333496C5.55967 0.333496 0.333008 5.56016 0.333008 12.0002C0.333008 18.4402 5.55967 23.6668 11.9997 23.6668C18.4397 23.6668 23.6663 18.4402 23.6663 12.0002C23.6663 5.56016 18.4397 0.333496 11.9997 0.333496ZM11.9997 3.8335C13.9363 3.8335 15.4997 5.39683 15.4997 7.3335C15.4997 9.27016 13.9363 10.8335 11.9997 10.8335C10.063 10.8335 8.49967 9.27016 8.49967 7.3335C8.49967 5.39683 10.063 3.8335 11.9997 3.8335ZM11.9997 20.4002C9.08301 20.4002 6.50467 18.9068 4.99967 16.6435C5.03467 14.3218 9.66634 13.0502 11.9997 13.0502C14.3213 13.0502 18.9647 14.3218 18.9997 16.6435C17.4947 18.9068 14.9163 20.4002 11.9997 20.4002Z" fill="black"/>
</svg>
