<svg width="43" height="30" viewBox="0 0 43 30" fill="none" xmlns="http://www.w3.org/2000/svg">
<rect x="0.5" y="0.5" width="41.0558" height="28.6459" rx="3.5" fill="white" stroke="#E2E2E2"/>
<path fill-rule="evenodd" clip-rule="evenodd" d="M13.2976 19.5888H10.7498L8.8393 12.096C8.74862 11.7513 8.55607 11.4466 8.27285 11.303C7.56603 10.9421 6.78717 10.6549 5.9375 10.51V10.2215H10.0418C10.6082 10.2215 11.033 10.6549 11.1038 11.1581L12.0951 16.563L14.6417 10.2215H17.1186L13.2976 19.5888ZM18.535 19.5888H16.1289L18.1102 10.2215H20.5164L18.535 19.5888ZM23.629 12.8166C23.6998 12.312 24.1246 12.0236 24.6202 12.0236C25.3991 11.9511 26.2475 12.096 26.9556 12.4557L27.3804 10.4388C26.6724 10.1504 25.8935 10.0055 25.1867 10.0055C22.8513 10.0055 21.152 11.303 21.152 13.1038C21.152 14.4737 22.3557 15.193 23.2054 15.6264C24.1246 16.0585 24.4786 16.3469 24.4078 16.779C24.4078 17.4272 23.6998 17.7156 22.9929 17.7156C22.1433 17.7156 21.2936 17.4996 20.516 17.1387L20.0912 19.1568C20.9408 19.5164 21.8601 19.6613 22.7097 19.6613C25.3283 19.7325 26.9556 18.4362 26.9556 16.4906C26.9556 14.0404 23.629 13.8968 23.629 12.8166V12.8166ZM35.3764 19.5888L33.4659 10.2215H31.4137C30.9889 10.2215 30.5641 10.51 30.4225 10.9421L26.8846 19.5888H29.3616L29.856 18.2201H32.8994L33.1826 19.5888H35.3764ZM31.7682 12.7441L32.475 16.2745H30.4937L31.7682 12.7441Z" fill="#172B85"/>
</svg>
